<svg width="48" height="48" viewBox="0 0 48 48" fill="none" xmlns="http://www.w3.org/2000/svg">
<path d="M40.8 0H7.2C3.22355 0 0 3.22355 0 7.2V40.8C0 44.7764 3.22355 48 7.2 48H40.8C44.7764 48 48 44.7764 48 40.8V7.2C48 3.22355 44.7764 0 40.8 0Z" fill="#1DA1F2"/>
<path d="M40.9687 14.2501C39.8573 14.9873 38.5524 15.3788 37.2187 15.3751C38.6446 14.5351 39.7122 13.2006 40.2187 11.6251C39.0368 12.6243 37.5474 13.1869 36 13.2188C34.9798 12.1739 33.6482 11.4881 32.2051 11.2642C30.762 11.0403 29.2852 11.2905 27.9964 11.9772C26.7075 12.6638 25.6761 13.75 25.057 15.0726C24.4378 16.3952 24.2643 17.883 24.5625 19.3126C21.9369 19.174 19.3698 18.4847 17.0278 17.2895C14.6859 16.0943 12.6215 14.4199 10.9687 12.3751C10.16 13.8386 9.92317 15.5501 10.3042 17.1782C10.6853 18.8063 11.657 20.235 13.0312 21.1876C11.9941 21.2022 10.9675 20.9777 10.0312 20.5313C10.0565 22.0415 10.5874 23.4995 11.5392 24.6723C12.491 25.845 13.8086 26.6646 15.2812 27.0001C14.301 27.2561 13.2756 27.2881 12.2812 27.0938C12.7102 28.4317 13.5459 29.6023 14.6719 30.4426C15.7978 31.2828 17.1579 31.7508 18.5625 31.7813C15.596 33.5809 12.1883 34.5221 8.71875 34.5001C11.6246 36.3971 14.9998 37.4505 18.4688 37.543C21.9378 37.6355 25.3644 36.7635 28.3672 35.024C31.37 33.2846 33.8312 30.7459 35.4767 27.6906C37.1222 24.6353 37.8875 21.1833 37.6875 17.7188C38.9246 16.7071 40.0273 15.5414 40.9687 14.2501Z" fill="white"/>
</svg>
