<svg width="42" height="42" viewBox="0 0 42 42" fill="none" xmlns="http://www.w3.org/2000/svg">
<g id="&#240;&#159;&#166;&#134; icon &#34;Facebook v1 icon&#34;">
<path id="Vector" d="M21.3245 41.6212C32.6734 41.6212 41.8734 32.4212 41.8734 21.0723C41.8734 9.72349 32.6734 0.523438 21.3245 0.523438C9.97569 0.523438 0.775635 9.72349 0.775635 21.0723C0.775635 32.4212 9.97569 41.6212 21.3245 41.6212Z" fill="#3C5A99"/>
<path id="Vector_2" d="M22.9219 31.3466V21.9873H26.0764L26.55 18.323H22.9219V15.9912C22.9219 14.9316 23.2148 14.2132 24.7319 14.2132H26.6544V10.9462C26.3213 10.9021 25.1734 10.8018 23.8369 10.8018C21.0476 10.8018 19.1372 12.5035 19.1372 15.6299V18.327H15.9946V21.9913H19.1372V31.3466H22.9219Z" fill="white"/>
</g>
</svg>
