<svg width="43" height="44" viewBox="0 0 43 44" fill="none" xmlns="http://www.w3.org/2000/svg">
<g id="&#240;&#159;&#166;&#134; icon &#34;Gmail&#34;">
<path id="Vector" d="M41.6661 21.6063C41.6661 10.2574 32.4661 1.05737 21.1173 1.05737C9.76841 1.05737 0.568359 10.2574 0.568359 21.6063V21.9157C0.568359 33.2646 9.76841 42.4646 21.1173 42.4646C32.4661 42.4646 41.6661 33.2646 41.6661 21.9157V21.6063Z" fill="white"/>
<path id="Vector_2" d="M10.6405 30.8615H14.5004V21.4876L8.98633 17.3521V29.2073C8.98633 30.1226 9.72797 30.8615 10.6405 30.8615Z" fill="#4285F4"/>
<path id="Vector_3" d="M27.7339 30.8615H31.5937C32.5091 30.8615 33.2479 30.1199 33.2479 29.2073V17.3521L27.7339 21.4876" fill="#34A853"/>
<path id="Vector_4" d="M27.7339 14.3193V21.4876L33.2479 17.3521V15.1464C33.2479 13.1007 30.9127 11.9345 29.2778 13.1613" fill="#FBBC04"/>
<path id="Vector_5" d="M14.5 21.4876V14.3193L21.1169 19.282L27.7338 14.3193V21.4876L21.1169 26.4503" fill="#EA4335"/>
<path id="Vector_6" d="M8.98633 15.1464V17.3521L14.5004 21.4876V14.3193L12.9565 13.1613C11.3188 11.9345 8.98633 13.1007 8.98633 15.1464Z" fill="#C5221F"/>
<path id="Vector_7" d="M41.6661 21.6063C41.6661 10.2574 32.4661 1.05737 21.1173 1.05737C9.76841 1.05737 0.568359 10.2574 0.568359 21.6063V21.9157C0.568359 33.2646 9.76841 42.4646 21.1173 42.4646C32.4661 42.4646 41.6661 33.2646 41.6661 21.9157V21.6063Z" stroke="#C4CFE3" stroke-width="1.09365"/>
</g>
</svg>
