<svg width="30" height="30" viewBox="0 0 30 30" fill="none" xmlns="http://www.w3.org/2000/svg">
<path d="M23.0859 28.125C22.8886 28.1258 22.696 28.0643 22.5357 27.9492L15 22.4859L7.46424 27.9492C7.30324 28.066 7.10928 28.1285 6.9104 28.1278C6.71151 28.1271 6.51801 28.0631 6.35787 27.9452C6.19772 27.8273 6.07924 27.6614 6.01954 27.4717C5.95984 27.282 5.96201 27.0782 6.02576 26.8898L8.96482 18.1846L1.34763 12.9609C1.18264 12.8479 1.05811 12.6851 0.992246 12.4963C0.926379 12.3074 0.922625 12.1025 0.981531 11.9114C1.04044 11.7202 1.15892 11.553 1.31966 11.434C1.48041 11.315 1.67499 11.2505 1.87498 11.25H11.2722L14.1082 2.52246C14.1693 2.33404 14.2885 2.1698 14.4487 2.05332C14.6089 1.93685 14.8019 1.87411 15 1.87411C15.1981 1.87411 15.3911 1.93685 15.5513 2.05332C15.7115 2.1698 15.8307 2.33404 15.8918 2.52246L18.7277 11.2529H28.125C28.3252 11.2528 28.5202 11.3168 28.6815 11.4356C28.8427 11.5544 28.9616 11.7216 29.0209 11.9129C29.0802 12.1042 29.0767 12.3094 29.0109 12.4985C28.9451 12.6876 28.8204 12.8507 28.6553 12.9639L21.0351 18.1846L23.9724 26.8875C24.02 27.0284 24.0334 27.1786 24.0115 27.3257C23.9896 27.4728 23.933 27.6126 23.8464 27.7335C23.7597 27.8544 23.6456 27.9529 23.5134 28.021C23.3812 28.0891 23.2346 28.1247 23.0859 28.125Z" fill="#FBBC04"/>
</svg>
