<?xml version="1.0" encoding="UTF-8" standalone="no"?>
<svg
   width="20"
   height="23.999979"
   viewBox="0 0 20 23.999979"
   fill="none"
   version="1.1"
   id="svg4"
   xml:space="preserve"
   xmlns="http://www.w3.org/2000/svg"
   xmlns:svg="http://www.w3.org/2000/svg"><defs
     id="defs8" /><path
     d="M 19,10 C 19,17 10,23 10,23 10,23 1,17 1,10 1,7.61305 1.94821,5.32387 3.63604,3.63604 5.32387,1.94821 7.61305,1 10,1 12.3869,1 14.6761,1.94821 16.364,3.63604 18.0518,5.32387 19,7.61305 19,10 Z"
     stroke="#ff6935"
     stroke-width="2"
     stroke-linecap="round"
     stroke-linejoin="round"
     id="path2" /><g
     style="fill:none"
     id="g123"
     transform="translate(6,5.9999899)"><path
       d="M 4,7 C 5.65685,7 7,5.65685 7,4 7,2.34315 5.65685,1 4,1 2.34315,1 1,2.34315 1,4 1,5.65685 2.34315,7 4,7 Z"
       stroke="#ff6935"
       stroke-width="2"
       stroke-linecap="round"
       stroke-linejoin="round"
       id="path114" /></g></svg>
